/* XPM */
static char * man_xpm[] = {
"24 24 2 1",
" 	c None",
".	c #FFFFFF",
"                        ",
"                        ",
"                        ",
"                        ",
"                        ",
"                        ",
"                        ",
"                        ",
"       ..........       ",
"       ..........       ",
"       ..........       ",
"       ..      ..       ",
"       ..      ..       ",
"       ..      ..       ",
"       ..      ..       ",
"        .........       ",
"                        ",
"                        ",
"                        ",
"                        ",
"                        ",
"                        ",
"                        ",
"                        "};
