/* XPM */
static char * Max_xpm[] = {
"32 24 2 1",
" 	c None",
".	c #FFFFFF",
"                                ",
"                                ",
"                                ",
"                                ",
"                                ",
"                                ",
"                                ",
"                                ",
"           ..........           ",
"           ..........           ",
"           ..........           ",
"           ..      ..           ",
"           ..      ..           ",
"           ..      ..           ",
"           ..      ..           ",
"            .........           ",
"                                ",
"                                ",
"                                ",
"                                ",
"                                ",
"                                ",
"                                ",
"                                "};
