/* XPM */
static char *dummy[]={
"32 24 29 1",
". c #9110c0",
"b c #9417c2",
"h c #9519c2",
"x c #9a25c5",
"A c #a235ca",
"# c #a439cb",
"z c #ab49cf",
"d c #ac4bd0",
"e c #ad4cd0",
"y c #ae4fd1",
"t c #b054d2",
"k c #b864d6",
"w c #b967d7",
"a c #ba69d7",
"c c #bb6bd8",
"s c #c480dd",
"v c #c580de",
"o c #c581de",
"r c #c785df",
"i c #c786df",
"m c #ca8be0",
"g c #cc90e2",
"l c #cd91e2",
"f c #f1e1f7",
"p c #f8effb",
"u c #f9f3fc",
"n c #fbf7fd",
"j c #fcf8fd",
"q c #fdfafe",
"................................",
"................................",
"................................",
"................................",
"................................",
"................................",
"................................",
"................................",
"............#ab...cd............",
"............efgh.ijk............",
".............aflmno.............",
"..............apqr..............",
"..............rjplh.............",
".............insafgb............",
"............tuv..afw............",
"............xy....zA............",
"................................",
"................................",
"................................",
"................................",
"................................",
"................................",
"................................",
"....bbbbbbbbbbbbbbbbbbbbbbbb...."};
