/* XPM */
static char *dummy[]={
"32 24 18 1",
". c #9110c0",
"a c #9111c0",
"# c #9314c1",
"k c #9315c1",
"m c #9518c2",
"o c #9519c2",
"p c #961ac3",
"n c #971dc3",
"l c #9a24c5",
"b c #a337ca",
"f c #ae50d1",
"g c #b660d5",
"c c #bf74da",
"e c #c077db",
"d c #c178db",
"j c #c682de",
"h c #ecd5f4",
"i c #ecd6f4",
"....#aaaaaaaaaaaaaaaaaaaaaa#....",
"....a......................a....",
"....a......................a....",
"....a......................a....",
"....a......................a....",
"....a......................a....",
"....a......................a....",
"....a......................a....",
"....a......................a....",
"....a......................a....",
"....a......................a....",
"....a......................a....",
"....a......................a....",
"....a......................a....",
"....a......bcddddddef......a....",
"....a......ghiiiiiiijk.....a....",
"....a.......llllllllm......a....",
"....a......................a....",
"....a......................a....",
"....a......................a....",
"....a......................a....",
"....a......................a....",
"....a......................a....",
"....noooooooooppppppppppooon...."};
