/* XPM */
static char *dummy[]={
"32 24 33 1",
". c #9110c0",
"B c #9111c0",
"q c #9212c0",
"A c #9213c1",
"f c #9314c1",
"p c #9417c2",
"E c #9518c2",
"D c #9a24c5",
"C c #9a25c5",
"# c #9c28c6",
"b c #a030c8",
"a c #a438cb",
"w c #be72da",
"t c #c178db",
"u c #c27bdc",
"s c #c47fdd",
"z c #c888e0",
"c c #c98ae0",
"l c #ce95e3",
"k c #cf97e4",
"n c #d098e4",
"g c #d099e4",
"e c #d3a0e6",
"r c #d6a6e8",
"i c #dcb2eb",
"o c #e1bdee",
"v c #e8ccf2",
"y c #ecd6f4",
"x c #ecd7f4",
"m c #edd9f5",
"j c #f2e4f8",
"d c #f6eafa",
"h c #ffffff",
"................................",
"................................",
"................................",
"................................",
"................................",
"................................",
"................................",
"...........#aaaaaaaab...........",
"...........cddddddddef..........",
"...........ghhhhhhhhif..........",
"...........gjklllllmif..........",
"...........nop....qrif..........",
"...........nop....qrif..........",
"...........nop....qrif..........",
"...........nmsttttuvif..........",
"...........wxyyyyyyxzA..........",
"...........BCDDDDDDDE...........",
"................................",
"................................",
"................................",
"................................",
"................................",
"................................",
"....pppppppppppppppppppppppp...."};
